<?xml version="1.0" encoding="UTF-8"?>
<svg version="1.1" xmlns="http://www.w3.org/2000/svg" width="1132" height="1052">
<path d="M0 0 C0.63833771 0.15327759 1.27667542 0.30655518 1.93435669 0.46447754 C69.47189431 16.70210461 134.02959032 44.24148743 193.4375 80.125 C194.46085449 80.73778809 195.48420898 81.35057617 196.53857422 81.98193359 C218.82665467 95.34792926 240.47430978 109.75980136 261.4375 125.125 C262.14068359 125.63804687 262.84386719 126.15109375 263.56835938 126.6796875 C284.7009733 142.10702887 305.36694534 158.0964131 325.62890625 174.6484375 C327.2298548 175.95547541 328.83347976 177.25923356 330.4375 178.5625 C335.8780761 182.9908759 341.25205996 187.49085665 346.59570312 192.03515625 C350.07030269 194.9850541 353.58225694 197.8818272 357.125 200.75 C361.52407833 204.32783215 365.73300378 208.0705852 369.921875 211.890625 C372.45080295 214.13681566 375.04799914 216.26031218 377.6875 218.375 C383.44984335 223.0339159 388.82242006 228.05827716 394.22265625 233.125 C397.21524333 235.93017254 400.2771056 238.64114046 403.3828125 241.3203125 C406.10674703 243.71281774 408.77093269 246.16905942 411.4375 248.625 C415.34591623 252.22393446 419.29308756 255.76710613 423.30859375 259.24609375 C426.07498596 261.68762523 428.7866418 264.1874535 431.5 266.6875 C435.7384999 270.59225453 440.02647577 274.41572963 444.4375 278.125 C443.0387797 282.32116091 440.17317183 283.04008203 436.4375 284.9375 C416.00438522 295.80398745 396.24748446 309.5113428 378.08203125 323.82910156 C376.34515086 325.19777156 374.59548711 326.54884649 372.84375 327.8984375 C368.09369976 331.57674402 363.38291248 335.27587749 358.8515625 339.22265625 C358.26785889 339.72917725 357.68415527 340.23569824 357.08276367 340.75756836 C355.97609013 341.72470137 354.8767497 342.70031658 353.78637695 343.68579102 C351.65774644 345.55062425 349.58377578 347.05352975 347.0390625 348.296875 C342.6614427 348.00766288 340.07355381 345.06348965 336.875 342.25 C335.44159955 341.03599258 334.00669281 339.82376151 332.5703125 338.61328125 C331.86680664 338.01467285 331.16330078 337.41606445 330.43847656 336.79931641 C327.7779763 334.57314378 325.03874797 332.5011735 322.25 330.4375 C318.30409739 327.51499994 314.38726044 324.56266767 310.5 321.5625 C297.81988626 311.78281142 285.0785607 302.08413913 272.25 292.5 C265.08201871 287.14349034 257.99272098 281.69610651 250.94458008 276.18310547 C245.50719063 271.93674035 240.00786589 267.7820268 234.47338867 263.66333008 C230.19545621 260.47033073 225.97543996 257.21185873 221.77783203 253.9140625 C213.25901453 247.22318419 204.57685986 240.85376079 195.67529297 234.68310547 C193.31780744 233.0416618 190.97246925 231.38391016 188.62890625 229.72265625 C177.0867298 221.55569029 165.37523999 213.70198508 153.4375 206.125 C152.6120166 205.60083496 151.7865332 205.07666992 150.93603516 204.53662109 C127.10708404 189.46797295 102.61787041 175.77757463 77.4375 163.125 C76.40898926 162.60341309 75.38047852 162.08182617 74.32080078 161.54443359 C43.07235712 145.76368729 10.22593292 133.84041047 -23.00512695 123.00219727 C-40.68379736 117.20357162 -54.24049634 108.55963432 -63.5625 92.125 C-70.92346877 76.79134761 -69.48466529 59.06588481 -64.375 43.28125 C-57.62088412 25.0144366 -45.83723689 6.25321055 -27.75 -2.1875 C-18.27464701 -4.23120359 -9.2537145 -2.26510676 0 0 Z " fill="#FDC22C" transform="translate(350.5625,143.875)"/>
<path d="M0 0 C3.44779086 1.50006391 5.82360533 3.50409262 8.5625 6.0625 C12.10168226 9.31107492 15.69560168 12.42468216 19.4375 15.4375 C24.211403 19.29825137 28.73388428 23.37437075 33.25 27.53125 C35.93737634 29.94378104 38.68965444 32.2325621 41.5 34.5 C45.28460334 37.55348679 48.92207537 40.70668301 52.5 44 C56.86769492 48.01605847 61.36849236 51.79385454 65.984375 55.51953125 C69.54670981 58.44969007 73.02454253 61.46780951 76.5 64.5 C81.59663751 68.94031983 86.74007773 73.30203314 91.9921875 77.55859375 C95.84474697 80.68567124 99.67187059 83.84309851 103.5 87 C109.98916236 92.34667928 116.48495721 97.68486277 123 103 C123.59635254 103.48823242 124.19270508 103.97646484 124.80712891 104.47949219 C133.75925512 111.80780651 142.79654106 118.99059024 152 126 C154.00066539 127.54080307 156.00064653 129.08249495 158 130.625 C159.67059935 131.90901867 161.34201589 133.19196664 163.01367188 134.47460938 C164.45853126 135.58418182 165.90241149 136.69502967 167.34570312 137.80664062 C177.63959823 145.73049081 187.98037369 153.54049014 198.64453125 160.96020508 C201.40566299 162.8831057 204.15833698 164.8168406 206.90039062 166.7668457 C217.06997895 173.99796888 227.35963678 181.02790568 237.75 187.9375 C238.53403198 188.4594696 239.31806396 188.98143921 240.12585449 189.51922607 C252.26816098 197.59632262 264.46959503 205.53424296 277 213 C277.90443848 213.54205078 278.80887695 214.08410156 279.74072266 214.64257812 C312.20760888 234.04655092 345.97944427 252.47233889 381.59570312 265.42553711 C398.05860135 271.42235146 398.05860135 271.42235146 403.08984375 280.03515625 C411.97976979 299.22671333 400.27969764 330.29105464 393.78857422 348.91650391 C388.79138016 362.11961662 380.97739606 373.85507405 368 380 C348.55238683 388.07259415 324.48247931 374.86442452 306.72460938 367.55322266 C277.87871987 355.57684227 249.99468503 341.69885081 223 326 C221.52372068 325.15185066 220.04717536 324.30416408 218.5703125 323.45703125 C193.53254489 309.00676284 169.56543897 292.71760521 146 276 C145.24219238 275.46262207 144.48438477 274.92524414 143.70361328 274.37158203 C132.11970943 266.13430832 120.78957297 257.58220319 109.51464844 248.92822266 C107.1407001 247.10788829 104.76275805 245.29295214 102.3828125 243.48046875 C90.09220158 234.11723795 77.93581368 224.61237826 65.96728516 214.84033203 C61.62245981 211.29866337 57.23543536 207.81842967 52.8125 204.375 C47.63984544 200.34328608 42.60393687 196.17655851 37.61694336 191.91796875 C33.62680006 188.5140898 29.5656938 185.21608345 25.45703125 181.95703125 C21.86843727 179.09870759 18.32406899 176.18734974 14.77734375 173.27734375 C12.95978656 171.78699798 11.13957252 170.29988506 9.31640625 168.81640625 C-9.5649284 153.44277963 -28.2394944 137.63614038 -46.25 121.25 C-49.56439286 118.24239392 -52.95659083 115.37570304 -56.4375 112.5625 C-60.24087503 109.48663412 -63.90082652 106.31246834 -67.5 103 C-71.92185122 98.93566016 -76.46936272 95.08986812 -81.140625 91.31640625 C-84.34728262 88.71866313 -87.52019761 86.08294669 -90.6875 83.4375 C-91.21722412 82.99535156 -91.74694824 82.55320312 -92.29272461 82.09765625 C-93.52884417 81.06553648 -94.76447849 80.03283561 -96 79 C-91.89769017 74.61280754 -87.3650162 71.19169351 -82.5 67.6875 C-80.79456548 66.44408893 -79.09017678 65.19924245 -77.38671875 63.953125 C-76.50290527 63.30666016 -75.6190918 62.66019531 -74.70849609 61.99414062 C-61.18077406 52.03430345 -47.91760598 41.73902761 -35 31 C-34.41250977 30.51160645 -33.82501953 30.02321289 -33.21972656 29.52001953 C-26.79356293 24.16128308 -20.47763245 18.6950147 -14.28515625 13.06640625 C-12.08768153 11.07928808 -9.86300132 9.12874976 -7.625 7.1875 C-4.97879985 4.8841274 -2.43160974 2.53292681 0 0 Z " fill="#FDC22C" transform="translate(431,533)"/>
<path d="M0 0 C1.14082031 0.67675781 1.14082031 0.67675781 2.3046875 1.3671875 C20.23194307 13.4997746 24.18457222 39.36636514 28 59 C28.37318359 60.83884766 28.37318359 60.83884766 28.75390625 62.71484375 C31.21447041 75.80917469 30.96494981 87.94367208 23.30859375 99.2578125 C16.68660856 108.073948 8.07627519 111.63568858 -2.1875 114.6875 C-4.43307416 115.38420165 -6.67783606 116.08352549 -8.921875 116.78515625 C-10.08654297 117.14754395 -11.25121094 117.50993164 -12.45117188 117.88330078 C-72.58043903 136.80399891 -129.35805049 165.10783389 -183 198 C-184.05477539 198.64461182 -184.05477539 198.64461182 -185.13085938 199.30224609 C-216.7037578 218.68193516 -247.31177001 239.85984416 -277 262 C-278.07556152 262.80099121 -278.07556152 262.80099121 -279.17285156 263.61816406 C-291.74096181 272.98479906 -304.16705953 282.522919 -316.4765625 292.2265625 C-318.77844308 294.04089639 -321.08560629 295.84808591 -323.3984375 297.6484375 C-324.53646431 298.53645068 -325.67448512 299.42447154 -326.8125 300.3125 C-327.37565918 300.74973389 -327.93881836 301.18696777 -328.51904297 301.63745117 C-331.91315132 304.29286415 -335.21923356 307.02695914 -338.484375 309.83984375 C-339.24516357 310.48848389 -340.00595215 311.13712402 -340.78979492 311.80541992 C-342.28013292 313.08058827 -343.75994877 314.36818072 -345.2277832 315.66918945 C-350.27413817 319.96820243 -350.27413817 319.96820243 -353.5859375 320.11328125 C-375.51537175 310.00019264 -395.2549304 294.01963439 -414 279 C-414.89074219 278.29230469 -415.78148437 277.58460938 -416.69921875 276.85546875 C-425.20822242 270.08299644 -433.61901397 263.19247914 -441.9375 256.1875 C-442.48124268 255.73141357 -443.02498535 255.27532715 -443.58520508 254.80541992 C-446.52605451 252.31905291 -449.29528941 249.73877769 -452 247 C-448.58942868 243.56446391 -445.1753981 240.13241435 -441.75830078 236.70336914 C-440.59949681 235.53957726 -439.44159678 234.37488451 -438.28466797 233.20922852 C-432.03265828 226.9112879 -425.76404418 220.75312993 -419 215 C-417.22429779 213.38032183 -415.45291693 211.75588282 -413.6875 210.125 C-409.22477168 206.05459944 -404.63742 202.19823091 -399.9375 198.40625 C-396.6364533 195.70220111 -393.41264883 192.91855523 -390.1875 190.125 C-383.91308932 184.71251994 -377.47074133 179.55716459 -370.91748047 174.48779297 C-368.86710005 172.89688155 -366.82563094 171.29499999 -364.78515625 169.69140625 C-354.77094963 161.83589119 -344.61734999 154.19298938 -334.33056641 146.69824219 C-332.07569884 145.0551604 -329.82490633 143.40661279 -327.57421875 141.7578125 C-315.89861396 133.23450382 -303.98617606 125.07876299 -292 117 C-290.91412598 116.26523437 -289.82825195 115.53046875 -288.70947266 114.7734375 C-275.22427639 105.65077381 -261.65460983 96.76991158 -247.60205078 88.53662109 C-244.75192133 86.85349905 -241.91990667 85.14242164 -239.08984375 83.42578125 C-215.82153824 69.32039919 -192.10544097 56.16916452 -167.81518555 43.91601562 C-166.03781114 43.01908102 -164.26205105 42.11894973 -162.48632812 41.21875 C-126.45315074 23.0500798 -88.5024142 7.63440747 -49 -1 C-48.19272461 -1.17789062 -47.38544922 -1.35578125 -46.55371094 -1.5390625 C-32.4023544 -4.5522791 -12.86110168 -8.16655506 0 0 Z " fill="#2B6CAF" transform="translate(1042,373)"/>
<path d="M0 0 C3.80269043 1.01433854 7.36145735 2.43588706 10.96337891 4.01123047 C11.78668701 4.36685059 12.60999512 4.7224707 13.45825195 5.08886719 C44.06334453 18.55080103 70.85140609 38.20160095 97.15087891 58.57373047 C98.16150391 59.35619141 99.17212891 60.13865234 100.21337891 60.94482422 C102.19550648 62.48407016 104.17538879 64.0259818 106.15087891 65.57373047 C104.91749092 69.27389442 103.51267447 70.12076081 100.46337891 72.51123047 C95.9460872 76.11451763 91.52215528 79.79480371 87.15087891 83.57373047 C83.02681872 87.12895476 78.87877182 90.64167623 74.65087891 94.07373047 C69.24724989 98.46318865 63.97049435 102.99055856 58.69384766 107.53076172 C53.74529175 111.78724971 48.75609351 115.99540053 43.76855469 120.20605469 C42.12178912 121.59832464 40.47777823 122.99378519 38.83447266 124.39013672 C32.92529212 129.40828488 26.97617255 134.3670961 20.96337891 139.26123047 C17.83287886 141.83519717 14.73927893 144.44956421 11.65087891 147.07373047 C5.87441217 151.97819806 0.03357655 156.79691855 -5.84912109 161.57373047 C-7.07573125 162.5710677 -8.30229057 163.56846745 -9.52880859 164.56591797 C-12.23859226 166.7691656 -14.94977142 168.97068272 -17.66162109 171.17138672 C-20.43662469 173.42413567 -23.20716152 175.68220352 -25.97412109 177.94482422 C-33.03315296 183.71163125 -40.13601947 189.39335815 -47.38427734 194.92138672 C-50.72680169 197.4716671 -54.04033043 200.05825992 -57.35351562 202.64648438 C-71.57248125 213.74912921 -86.01075058 224.51934423 -100.68017578 235.01953125 C-102.65930423 236.43771357 -104.63338219 237.86264927 -106.60693359 239.28857422 C-128.36907877 254.91710762 -150.82096321 269.879812 -173.84912109 283.57373047 C-174.81736816 284.15106934 -175.78561523 284.7284082 -176.78320312 285.32324219 C-288.38624812 351.55405254 -288.38624812 351.55405254 -325.50537109 345.11279297 C-331.66288579 343.4973956 -336.10489153 340.76098549 -340.84912109 336.57373047 C-341.43306641 336.08259766 -342.01701172 335.59146484 -342.61865234 335.08544922 C-359.05969337 320.12892657 -371.8567344 287.18178626 -373.22021484 265.20654297 C-373.52033576 254.11178968 -372.38690102 246.29957077 -364.66162109 237.82373047 C-353.20412648 227.32307159 -337.09979627 222.03696889 -322.91162109 216.32373047 C-292.20339277 203.93276534 -262.39910576 189.35501917 -233.84912109 172.57373047 C-232.9607959 172.05439941 -232.0724707 171.53506836 -231.15722656 171 C-206.98459879 156.79863609 -183.51419386 141.07078269 -160.84912109 124.57373047 C-160.11161621 124.0390918 -159.37411133 123.50445312 -158.61425781 122.95361328 C-147.54080276 114.91225741 -136.66263782 106.64107466 -125.90234375 98.18603516 C-123.99575446 96.68887515 -122.08536812 95.19674663 -120.17333984 93.70654297 C-111.9150328 87.26016075 -103.77096707 80.67802014 -95.65771484 74.05029297 C-94.0567663 72.74325506 -92.45314133 71.43949691 -90.84912109 70.13623047 C-85.40568888 65.70552983 -80.02995831 61.20201084 -74.68212891 56.65698242 C-71.28920358 53.77781711 -67.86621734 50.94150466 -64.41162109 48.13623047 C-60.16519727 44.68098896 -55.99615815 41.14675213 -51.84912109 37.57373047 C-46.83731096 33.25563399 -41.76693925 29.02466521 -36.63037109 24.85498047 C-33.48528182 22.2753005 -30.38436795 19.64736115 -27.28662109 17.01123047 C-21.89120652 12.42389407 -16.40512767 7.96571454 -10.84912109 3.57373047 C-9.71990234 2.44257813 -9.71990234 2.44257813 -8.56787109 1.28857422 C-5.42236314 -0.69544589 -3.61743922 -0.67779387 0 0 Z " fill="#2B6CAF" transform="translate(424.84912109375,342.42626953125)"/>
<path d="M0 0 C2.85749488 1.21169232 4.55259313 2.70027269 6.77734375 4.8671875 C10.75769958 8.59950929 14.83851212 12.03766034 19.15234375 15.3671875 C23.83312253 18.99107766 28.40987302 22.69981827 32.90234375 26.5546875 C38.61303865 31.44012258 44.51711581 36.03990863 50.5 40.58642578 C54.0273022 43.28151682 57.52548278 46.01417695 61.02734375 48.7421875 C62.56119509 49.93620155 64.09504929 51.13021193 65.62890625 52.32421875 C66.40137695 52.92572754 67.17384766 53.52723633 67.96972656 54.14697266 C71.94609917 57.24271062 75.9243129 60.33608088 79.90234375 63.4296875 C81.32032113 64.53254099 82.73829016 65.63540522 84.15625 66.73828125 C85.16776123 67.52501221 85.16776123 67.52501221 86.19970703 68.32763672 C89.91308594 71.21582031 93.62646484 74.10400391 97.33984375 76.9921875 C93.25900178 81.48111367 88.74811997 84.4658608 83.58984375 87.6171875 C81.86399506 88.68785441 80.13874498 89.75948677 78.4140625 90.83203125 C77.55345215 91.36554199 76.6928418 91.89905273 75.80615234 92.44873047 C72.96465027 94.22698984 70.15896383 96.05447278 67.35791016 97.89550781 C47.22641939 111.11543808 26.44051153 123.39175585 5.33984375 134.9921875 C3.69266357 135.90097656 3.69266357 135.90097656 2.01220703 136.828125 C-22.13704871 150.10699757 -46.69868648 161.65303406 -72.66015625 170.9921875 C-73.40539551 171.26208496 -74.15063477 171.53198242 -74.91845703 171.81005859 C-86.08190744 175.75320128 -98.43880606 177.48908643 -109.4609375 172.2421875 C-127.47727527 162.00199552 -138.54064646 140.08589038 -144.32861328 120.76025391 C-148.39256111 105.94277193 -151.78019162 88.77610653 -144.40234375 74.5703125 C-137.99047708 64.12913071 -128.76844364 59.12567879 -117.91015625 54.0546875 C-116.54732836 53.40691816 -115.18478636 52.75854707 -113.82250977 52.10961914 C-101.98458936 46.50045618 -90.00993252 41.19486556 -78.02319336 35.91333008 C-63.46223133 29.49497984 -49.03973901 22.80672047 -34.66015625 15.9921875 C-33.47099609 15.42918945 -32.28183594 14.86619141 -31.05664062 14.28613281 C-27.60965315 12.65131363 -24.16540034 11.01092182 -20.72265625 9.3671875 C-19.70405518 8.88217773 -18.6854541 8.39716797 -17.63598633 7.89746094 C-13.56445639 5.9426845 -9.6064758 3.99853029 -5.78125 1.59375 C-2.66015625 -0.0078125 -2.66015625 -0.0078125 0 0 Z " fill="#2B6CAF" transform="translate(431.66015625,738.0078125)"/>
<path d="M0 0 C1.02287109 0.61875 1.02287109 0.61875 2.06640625 1.25 C16.44237446 10.85216473 25.07975845 33.10011009 28.49609375 49.36132812 C31.83645988 67.01557722 34.12464747 86.00954661 23.6875 101.765625 C14.42141248 114.03461126 -1.92673794 118.98346716 -15.859375 124.19140625 C-16.88565002 124.57546127 -17.91192505 124.9595163 -18.96929932 125.35520935 C-32.99966267 130.54709053 -47.23800691 135.12889615 -61.45654297 139.77319336 C-65.11345764 140.96969873 -68.76825751 142.17237214 -72.421875 143.37890625 C-74.17304626 143.95519272 -74.17304626 143.95519272 -75.95959473 144.54312134 C-84.09819719 147.26032914 -92.06251837 150.28646269 -99.88787842 153.81166077 C-105.33798003 156.1585517 -105.33798003 156.1585517 -108.91137695 155.30273438 C-111.17247132 153.89242467 -113.00694115 152.40130952 -114.9375 150.5625 C-118.68671568 147.12262555 -122.54674724 143.92949707 -126.5625 140.8125 C-131.80912417 136.73609459 -136.98429457 132.58415175 -142.125 128.375 C-148.06459828 123.52813009 -154.07958658 118.81929509 -160.25927734 114.27978516 C-162.28707342 112.78894266 -164.30950784 111.29095616 -166.33203125 109.79296875 C-171.21197908 106.1824941 -176.10427155 102.58903591 -181 99 C-182.18215088 98.13157471 -182.18215088 98.13157471 -183.38818359 97.24560547 C-193.05636394 90.15318799 -202.81753438 83.3353926 -213 77 C-210.32918504 74.15356877 -207.78579418 72.09700792 -204.38671875 70.1875 C-203.02752319 69.41974243 -203.02752319 69.41974243 -201.64086914 68.63647461 C-200.17895142 67.82641968 -200.17895142 67.82641968 -198.6875 67 C-197.66712646 66.42967041 -196.64675293 65.85934082 -195.59545898 65.27172852 C-185.78980888 59.82297459 -175.87921624 54.58606835 -165.89160156 49.47949219 C-163.97211803 48.49738562 -162.05477222 47.51108908 -160.13964844 46.52050781 C-30.94963716 -20.25334129 -30.94963716 -20.25334129 0 0 Z " fill="#2B6CAF" transform="translate(809,144)"/>
<path d="M0 0 C1.25544699 0.49976963 2.51089952 0.99952535 3.76635742 1.49926758 C45.53743056 18.21152969 45.53743056 18.21152969 58.8125 30 C59.52019531 30.60328125 60.22789062 31.2065625 60.95703125 31.828125 C68.21450042 38.45275363 71.90149488 45.54339235 72.40307617 55.38061523 C72.8262674 83.74043014 53.28461622 111.8329895 35.41845703 132.41894531 C30.71308497 137.05135477 24.14954548 137.96082198 17.8125 138 C-3.59928774 137.10651258 -25.1258281 125.84028384 -44.1875 117 C-45.17137695 116.5472168 -46.15525391 116.09443359 -47.16894531 115.62792969 C-60.53477108 109.4546362 -73.50109698 102.70354285 -86.36767578 95.5546875 C-89.25380881 93.96344117 -92.15326371 92.39964645 -95.05859375 90.84375 C-105.577274 85.20926334 -116.00341713 79.44837439 -126.3125 73.4375 C-127.31394043 72.85371582 -128.31538086 72.26993164 -129.34716797 71.66845703 C-139.69797911 65.59070491 -139.69797911 65.59070491 -143.1875 63 C-143.1875 62.34 -143.1875 61.68 -143.1875 61 C-141.68481445 59.78588867 -141.68481445 59.78588867 -139.55078125 58.41796875 C-138.75679932 57.90484131 -137.96281738 57.39171387 -137.14477539 56.86303711 C-136.27199951 56.31010986 -135.39922363 55.75718262 -134.5 55.1875 C-133.14926392 54.32233765 -133.14926392 54.32233765 -131.77124023 53.43969727 C-128.9159467 51.61689054 -126.05295702 49.80678101 -123.1875 48 C-121.86588867 47.1637207 -121.86588867 47.1637207 -120.51757812 46.31054688 C-90.56991172 27.40453324 -59.3394649 10.0636508 -26.6875 -3.75 C-25.5840625 -4.21921875 -24.480625 -4.6884375 -23.34375 -5.171875 C-15.14467406 -7.3231177 -7.51988225 -3.01958028 0 0 Z " fill="#FDC22C" transform="translate(1000.1875,550)"/>
<path d="M0 0 C0.83619873 0.34604279 1.67239746 0.69208557 2.53393555 1.0486145 C14.98380923 6.21531208 27.2972269 11.66005348 39.5625 17.25 C39.5625 20.25 39.5625 20.25 37.32421875 22.6328125 C36.3078554 23.55617971 35.28243512 24.46963864 34.25 25.375 C33.70239014 25.86508545 33.15478027 26.3551709 32.59057617 26.86010742 C28.36999319 30.60936863 24.04423412 34.22042621 19.64453125 37.7578125 C17.33085882 39.62869084 15.04063421 41.51731879 12.76171875 43.4296875 C-9.44379041 62.02334621 -33.37753334 79.06524131 -58.4921875 93.5390625 C-61.40605789 95.18421069 -61.40605789 95.18421069 -63.9453125 96.9609375 C-66.78267271 98.829443 -69.06752423 100.31228607 -72.54248047 100.15429688 C-73.33025879 99.98994141 -74.11803711 99.82558594 -74.9296875 99.65625 C-75.89970703 99.45604248 -76.86972656 99.25583496 -77.86914062 99.04956055 C-79.04669922 98.78570557 -80.22425781 98.52185059 -81.4375 98.25 C-82.14817627 98.09254303 -82.85885254 97.93508606 -83.59106445 97.77285767 C-140.80721081 85.04777987 -140.80721081 85.04777987 -155.4375 75.25 C-156.09621094 74.82589844 -156.75492188 74.40179688 -157.43359375 73.96484375 C-163.86332826 69.22205034 -167.87512572 60.99716786 -169.4375 53.25 C-171.18864651 26.15432892 -167.02686509 -2.30141234 -150.4375 -24.75 C-119.35394521 -59.90817808 -34.8714146 -14.43681379 0 0 Z " fill="#FDC22C" transform="translate(224.4375,404.75)"/>
</svg>
